<svg width="103" height="39" viewBox="0 0 103 39" fill="none" xmlns="http://www.w3.org/2000/svg">
<path d="M18.852 28.744C18.852 27.288 18.4187 26.1093 17.552 25.208C16.6853 24.272 15.5933 23.4573 14.276 22.764C12.9933 22.036 11.5893 21.36 10.064 20.736C8.53867 20.112 7.11733 19.3667 5.8 18.5C4.51733 17.5987 3.44267 16.5067 2.576 15.224C1.70933 13.9067 1.276 12.2427 1.276 10.232C1.276 7.38933 2.264 5.136 4.24 3.472C6.216 1.808 9.024 0.975999 12.664 0.975999C14.7787 0.975999 16.7027 1.132 18.436 1.444C20.1693 1.756 21.5213 2.15467 22.492 2.64L21.192 6.436C20.3947 6.05466 19.216 5.69067 17.656 5.344C16.1307 4.99733 14.3973 4.824 12.456 4.824C10.168 4.824 8.452 5.344 7.308 6.384C6.164 7.38933 5.592 8.58533 5.592 9.972C5.592 11.324 6.02533 12.4507 6.892 13.352C7.75867 14.2533 8.83333 15.068 10.116 15.796C11.4333 16.4893 12.8547 17.1827 14.38 17.876C15.9053 18.5693 17.3093 19.384 18.592 20.32C19.9093 21.2213 21.0013 22.3133 21.868 23.596C22.7347 24.8787 23.168 26.4733 23.168 28.38C23.168 29.94 22.8907 31.344 22.336 32.592C21.7813 33.84 20.9667 34.9147 19.892 35.816C18.8173 36.7173 17.5173 37.4107 15.992 37.896C14.4667 38.3813 12.7333 38.624 10.792 38.624C8.192 38.624 6.04267 38.416 4.344 38C2.64533 37.6187 1.328 37.1853 0.392 36.7L1.848 32.8C2.64533 33.2507 3.824 33.7013 5.384 34.152C6.944 34.568 8.69467 34.776 10.636 34.776C11.78 34.776 12.8547 34.672 13.86 34.464C14.8653 34.2213 15.732 33.8573 16.46 33.372C17.188 32.852 17.76 32.2107 18.176 31.448C18.6267 30.6853 18.852 29.784 18.852 28.744ZM48.609 35.92C47.569 36.752 46.2517 37.4107 44.657 37.896C43.097 38.3813 41.433 38.624 39.665 38.624C37.689 38.624 35.973 38.312 34.517 37.688C33.061 37.0293 31.865 36.1107 30.929 34.932C29.993 33.7187 29.2997 32.28 28.849 30.616C28.3983 28.952 28.173 27.08 28.173 25C28.173 20.5627 29.161 17.1827 31.137 14.86C33.113 12.5373 35.9383 11.376 39.613 11.376C40.7917 11.376 41.9703 11.5147 43.149 11.792C44.3277 12.0347 45.385 12.52 46.321 13.248C47.257 13.976 48.0197 15.016 48.609 16.368C49.1983 17.6853 49.493 19.436 49.493 21.62C49.493 22.764 49.389 24.0293 49.181 25.416H32.489C32.489 26.9413 32.645 28.2933 32.957 29.472C33.269 30.6507 33.7543 31.656 34.413 32.488C35.0717 33.2853 35.921 33.9093 36.961 34.36C38.0357 34.776 39.3357 34.984 40.861 34.984C42.0397 34.984 43.2183 34.776 44.397 34.36C45.5757 33.944 46.4597 33.4587 47.049 32.904L48.609 35.92ZM39.665 15.016C37.6197 15.016 35.973 15.5533 34.725 16.628C33.5117 17.7027 32.7837 19.54 32.541 22.14H45.437C45.437 19.5053 44.9343 17.668 43.929 16.628C42.9237 15.5533 41.5023 15.016 39.665 15.016ZM74.4567 35.92C73.4167 36.752 72.0993 37.4107 70.5047 37.896C68.9447 38.3813 67.2807 38.624 65.5127 38.624C63.5367 38.624 61.8207 38.312 60.3647 37.688C58.9087 37.0293 57.7127 36.1107 56.7767 34.932C55.8407 33.7187 55.1473 32.28 54.6967 30.616C54.246 28.952 54.0207 27.08 54.0207 25C54.0207 20.5627 55.0087 17.1827 56.9847 14.86C58.9607 12.5373 61.786 11.376 65.4607 11.376C66.6393 11.376 67.818 11.5147 68.9967 11.792C70.1753 12.0347 71.2327 12.52 72.1687 13.248C73.1047 13.976 73.8673 15.016 74.4567 16.368C75.046 17.6853 75.3407 19.436 75.3407 21.62C75.3407 22.764 75.2367 24.0293 75.0287 25.416H58.3367C58.3367 26.9413 58.4927 28.2933 58.8047 29.472C59.1167 30.6507 59.602 31.656 60.2607 32.488C60.9193 33.2853 61.7687 33.9093 62.8087 34.36C63.8833 34.776 65.1833 34.984 66.7087 34.984C67.8873 34.984 69.066 34.776 70.2447 34.36C71.4233 33.944 72.3073 33.4587 72.8967 32.904L74.4567 35.92ZM65.5127 15.016C63.4673 15.016 61.8207 15.5533 60.5727 16.628C59.3593 17.7027 58.6313 19.54 58.3887 22.14H71.2847C71.2847 19.5053 70.782 17.668 69.7767 16.628C68.7713 15.5533 67.35 15.016 65.5127 15.016ZM88.4349 26.3H86.0429V38H81.8829V1.6H86.0429V23.752L88.1749 23.024L96.2349 12H101.071L93.1149 22.452L90.9829 24.168L93.5829 26.248L102.267 38H97.1189L88.4349 26.3Z" fill="url(#paint0_linear)"/>
<defs>
<linearGradient id="paint0_linear" x1="52" y1="-15" x2="52" y2="49" gradientUnits="userSpaceOnUse">
<stop stop-color="#2F1336"/>
<stop offset="1" stop-color="#F93030"/>
</linearGradient>
</defs>
</svg>
